<?xml version="1.0" encoding="UTF-8" standalone="no"?>
<!-- Created with Inkscape (http://www.inkscape.org/) -->

<svg
   xmlns:dc="http://purl.org/dc/elements/1.1/"
   xmlns:cc="http://creativecommons.org/ns#"
   xmlns:rdf="http://www.w3.org/1999/02/22-rdf-syntax-ns#"
   xmlns:svg="http://www.w3.org/2000/svg"
   xmlns="http://www.w3.org/2000/svg"
   xmlns:sodipodi="http://sodipodi.sourceforge.net/DTD/sodipodi-0.dtd"
   xmlns:inkscape="http://www.inkscape.org/namespaces/inkscape"
   id="svg2"
   version="1.1"
   inkscape:version="0.91 r13725"
   xml:space="preserve"
   width="744.09448"
   height="1052.3622"
   viewBox="0 0 744.09448 1052.3622"
   sodipodi:docname="Projeto-Mestrado-Trace-Flow--.svg"><metadata
     id="metadata8"><rdf:RDF><cc:Work
         rdf:about=""><dc:format>image/svg+xml</dc:format><dc:type
           rdf:resource="http://purl.org/dc/dcmitype/StillImage" /><dc:title></dc:title></cc:Work></rdf:RDF></metadata><defs
     id="defs6"><inkscape:perspective
       sodipodi:type="inkscape:persp3d"
       inkscape:vp_x="0 : 526.1811 : 1"
       inkscape:vp_y="0 : 1000 : 0"
       inkscape:vp_z="744.09448 : 526.1811 : 1"
       inkscape:persp3d-origin="372.04724 : 350.7874 : 1"
       id="perspective4388" /><clipPath
       clipPathUnits="userSpaceOnUse"
       id="clipPath18"><path
         d="m 80,761.89 435.277,0 0,-681.891 -435.277,0 0,681.891 z"
         id="path20"
         inkscape:connector-curvature="0" /></clipPath><clipPath
       clipPathUnits="userSpaceOnUse"
       id="clipPath116"><path
         d="m 421,504.89 94.277,0 0,-40 -94.277,0 0,40 z"
         id="path118"
         inkscape:connector-curvature="0" /></clipPath><clipPath
       clipPathUnits="userSpaceOnUse"
       id="clipPath142"><path
         d="m 421,467.89 94.277,0 0,-8 -94.277,0 0,8 z"
         id="path144"
         inkscape:connector-curvature="0" /></clipPath><clipPath
       clipPathUnits="userSpaceOnUse"
       id="clipPath158"><path
         d="m 421,461.89 94.277,0 0,-16 -94.277,0 0,16 z"
         id="path160"
         inkscape:connector-curvature="0" /></clipPath></defs><sodipodi:namedview
     pagecolor="#ffffff"
     bordercolor="#666666"
     borderopacity="1"
     objecttolerance="10"
     gridtolerance="10"
     guidetolerance="10"
     inkscape:pageopacity="0"
     inkscape:pageshadow="2"
     inkscape:window-width="1873"
     inkscape:window-height="1056"
     id="namedview4"
     showgrid="false"
     inkscape:zoom="1.7940591"
     inkscape:cx="439.58554"
     inkscape:cy="791.8568"
     inkscape:window-x="47"
     inkscape:window-y="24"
     inkscape:window-maximized="1"
     inkscape:current-layer="g10" /><g
     id="g10"
     inkscape:groupmode="layer"
     inkscape:label="Projeto-Mestrado-Trace-Flow"
     transform="matrix(1.25,0,0,-1.25,0,1052.3622)"><g
       id="g12" /><g
       id="g14"><g
         id="g16"
         clip-path="url(#clipPath18)"><g
           id="g24"
           transform="matrix(1,0,0,-1,0,841.88976)"><path
             d="m 359.789,80.676 121.359,0 0,39.234 -121.359,0 0,-39.234 z"
             style="fill:#ffffff;fill-opacity:1;fill-rule:evenodd;stroke:#000000;stroke-width:1.352947;stroke-linecap:butt;stroke-linejoin:miter;stroke-miterlimit:10;stroke-dasharray:none;stroke-opacity:1"
             id="path26"
             inkscape:connector-curvature="0" /></g><text
           transform="matrix(1,0,0,-1,389.22266,750.38813)"
           style="font-variant:normal;font-weight:normal;font-size:8.65820312px;font-family:'DejaVu Sans Mono';-inkscape-font-specification:DejaVuSansMono;writing-mode:lr-tb;fill:#000000;fill-opacity:1;fill-rule:nonzero;stroke:none"
           id="text28"><tspan
             x="0 5.4200349 10.84007 16.251448 21.671482 27.091516 32.511551 37.922928 43.342964 48.763 54.183033 59.603069"
             y="0"
             sodipodi:role="line"
             id="tspan30">&lt;&lt;abstract&gt;&gt;</tspan></text>
<text
           transform="matrix(1,0,0,-1,379.77344,737.53091)"
           style="font-variant:normal;font-weight:bold;font-size:10.82324219px;font-family:'DejaVu Sans';-inkscape-font-specification:DejaVuSans-Bold;writing-mode:lr-tb;fill:#000000;fill-opacity:1;fill-rule:nonzero;stroke:none"
           id="text32"><tspan
             x="0 9.1997557 16.656969 21.917065 32.069267 39.62389 45.046333 52.362846 59.874176 63.640663 71.19529"
             y="0"
             sodipodi:role="line"
             id="tspan34">NetworkFlow</tspan></text>
<text
           transform="matrix(1,0,0,-1,389.81641,727.04889)"
           style="font-style:oblique;font-variant:normal;font-size:7.57617188px;font-family:'DejaVu Sans';-inkscape-font-specification:DejaVuSans-Oblique;writing-mode:lr-tb;fill:#000000;fill-opacity:1;fill-rule:nonzero;stroke:none"
           id="text36"><tspan
             x="0"
             y="0"
             id="tspan38">(</tspan></text>
<text
           transform="matrix(1,0,0,-1,392.93779,727.04889)"
           style="font-style:oblique;font-variant:normal;font-size:7.57617188px;font-family:'DejaVu Sans';-inkscape-font-specification:DejaVuSans-Oblique;writing-mode:lr-tb;fill:#000000;fill-opacity:1;fill-rule:nonzero;stroke:none"
           id="text40"><tspan
             x="0"
             y="0"
             id="tspan42">ﬂ</tspan></text>
<text
           transform="matrix(1,0,0,-1,398.09716,727.04889)"
           style="font-style:oblique;font-variant:normal;font-size:7.57617188px;font-family:'DejaVu Sans';-inkscape-font-specification:DejaVuSans-Oblique;writing-mode:lr-tb;fill:#000000;fill-opacity:1;fill-rule:nonzero;stroke:none"
           id="text44"><tspan
             x="0 4.886631 11.424868 13.962885 18.857092 21.993628 25.281687 27.493929 32.569962 37.630848 40.76738 45.691895 49.851212"
             y="0"
             sodipodi:role="line"
             id="tspan46">ow atributes)</tspan></text>
<g
           id="g48"
           transform="matrix(1,0,0,-1,0,841.88976)"><path
             d="m 359.789,119.91 121.359,0 0,13.531 -121.359,0 0,-13.531 z"
             style="fill:#ffffff;fill-opacity:1;fill-rule:evenodd;stroke:#000000;stroke-width:1.352947;stroke-linecap:butt;stroke-linejoin:miter;stroke-miterlimit:10;stroke-dasharray:none;stroke-opacity:1"
             id="path50"
             inkscape:connector-curvature="0" /></g><text
           transform="matrix(1,0,0,-1,361.81641,712.50531)"
           style="font-variant:normal;font-weight:normal;font-size:8.65820312px;font-family:'DejaVu Sans Mono';-inkscape-font-specification:DejaVuSansMono;writing-mode:lr-tb;fill:#000000;fill-opacity:1;fill-rule:nonzero;stroke:none"
           id="text52"><tspan
             x="0 5.4200349 10.84007 16.251448 21.671482 27.091516 32.511551 37.922928 43.342964"
             y="0"
             sodipodi:role="line"
             id="tspan54">-FlowData</tspan></text>
<g
           id="g56"
           transform="matrix(1,0,0,-1,0,841.88976)"><path
             d="m 359.789,133.441 121.359,0 0,35.176 -121.359,0 0,-35.176 z"
             style="fill:#ffffff;fill-opacity:1;fill-rule:evenodd;stroke:#000000;stroke-width:1.352947;stroke-linecap:butt;stroke-linejoin:miter;stroke-miterlimit:10;stroke-dasharray:none;stroke-opacity:1"
             id="path58"
             inkscape:connector-curvature="0" /></g><text
           transform="matrix(1,0,0,-1,361.81641,698.97406)"
           style="font-variant:normal;font-weight:normal;font-size:8.65820312px;font-family:'DejaVu Sans Mono';-inkscape-font-specification:DejaVuSansMono;writing-mode:lr-tb;fill:#000000;fill-opacity:1;fill-rule:nonzero;stroke:none"
           id="text60"><tspan
             x="0 5.4200349 10.84007 16.251448 21.671482 27.091516 32.511551 37.922928 43.342964 48.763 54.183033 59.603069 65.01445 70.434479 75.854515 81.274551 86.685928"
             y="0"
             sodipodi:role="line"
             id="tspan62">+setData(in data)</tspan><tspan
             x="0 5.4200349 10.84007 16.251448 21.671482 27.091516 32.511551 37.922928 43.342964 48.763 54.183033 59.603069 65.01445 70.434479 75.854515 81.274551 86.685928 92.105965 97.526001 102.94604 108.36607 113.77744"
             y="10.824217"
             sodipodi:role="line"
             id="tspan64">+getData(): data const</tspan></text>
<text
           transform="matrix(1,0,0,-1,361.81641,677.32563)"
           style="font-style:oblique;font-variant:normal;font-weight:bold;font-size:8.65820312px;font-family:'DejaVu Sans Mono';-inkscape-font-specification:DejaVuSansMono-BoldOblique;writing-mode:lr-tb;fill:#000000;fill-opacity:1;fill-rule:nonzero;stroke:none"
           id="text66"><tspan
             x="0 5.4200349 10.84007 16.251448 21.671482 27.091516 32.511551 37.922928 43.342964 48.763 54.183033 59.603069 65.01445 70.434479 75.854515"
             y="0"
             sodipodi:role="line"
             id="tspan68">+flowGenerate()</tspan></text>
<g
           id="g70"
           transform="matrix(1,0,0,-1,0,841.88976)"><path
             d="m 378.055,216.648 84.898,0 0,37.883 -84.898,0 0,-37.883 z"
             style="fill:#ffffff;fill-opacity:1;fill-rule:evenodd;stroke:#000000;stroke-width:1.352947;stroke-linecap:butt;stroke-linejoin:miter;stroke-miterlimit:10;stroke-dasharray:none;stroke-opacity:1"
             id="path72"
             inkscape:connector-curvature="0" /></g><text
           transform="matrix(1,0,0,-1,382.47656,612.38638)"
           style="font-variant:normal;font-weight:bold;font-size:10.82324219px;font-family:'DejaVu Sans';-inkscape-font-specification:DejaVuSans-Bold;writing-mode:lr-tb;fill:#000000;fill-opacity:1;fill-rule:nonzero;stroke:none"
           id="text74"><tspan
             x="0 9.1348162 16.949198 28.400187 39.851177 47.016163 54.527493 58.29398 65.848602"
             y="0"
             sodipodi:role="line"
             id="tspan76">DummyFlow</tspan></text>
<text
           transform="matrix(1,0,0,-1,396.17969,601.90045)"
           style="font-style:oblique;font-variant:normal;font-size:7.57617188px;font-family:'DejaVu Sans';-inkscape-font-specification:DejaVuSans-Oblique;writing-mode:lr-tb;fill:#000000;fill-opacity:1;fill-rule:nonzero;stroke:none"
           id="text78"><tspan
             x="0"
             y="0"
             id="tspan80">(</tspan></text>
<text
           transform="matrix(1,0,0,-1,399.30107,601.90045)"
           style="font-style:oblique;font-variant:normal;font-size:7.57617188px;font-family:'DejaVu Sans';-inkscape-font-specification:DejaVuSans-Oblique;writing-mode:lr-tb;fill:#000000;fill-opacity:1;fill-rule:nonzero;stroke:none"
           id="text82"><tspan
             x="0"
             y="0"
             id="tspan84">ﬂ</tspan></text>
<text
           transform="matrix(1,0,0,-1,404.46044,601.90045)"
           style="font-style:oblique;font-variant:normal;font-size:7.57617188px;font-family:'DejaVu Sans';-inkscape-font-specification:DejaVuSans-Oblique;writing-mode:lr-tb;fill:#000000;fill-opacity:1;fill-rule:nonzero;stroke:none"
           id="text86"><tspan
             x="0 4.886631 11.424868 13.962885 17.099421 22.160303 25.448362 30.372873 35.267082"
             y="0"
             sodipodi:role="line"
             id="tspan88">ow thread</tspan><tspan
             x="-7.1596642 -3.0003459 1.3938339 6.4547167 11.379229 16.447687 21.516146 23.72839 25.948208 31.00909 36.085125"
             y="9.4687529"
             sodipodi:role="line"
             id="tspan90">scheduling)</tspan></text>
<g
           id="g92"
           transform="matrix(1,0,0,-1,0,841.88976)"><path
             d="m 378.055,254.531 84.898,0 0,5.41 -84.898,0 0,-5.41 z"
             style="fill:#ffffff;fill-opacity:1;fill-rule:evenodd;stroke:#000000;stroke-width:1.352947;stroke-linecap:butt;stroke-linejoin:miter;stroke-miterlimit:10;stroke-dasharray:none;stroke-opacity:1"
             id="path94"
             inkscape:connector-curvature="0" /></g><g
           id="g96"
           transform="matrix(1,0,0,-1,0,841.88976)"><path
             d="m 378.055,259.941 84.898,0 0,35.176 -84.898,0 0,-35.176 z"
             style="fill:#ffffff;fill-opacity:1;fill-rule:evenodd;stroke:#000000;stroke-width:1.352947;stroke-linecap:butt;stroke-linejoin:miter;stroke-miterlimit:10;stroke-dasharray:none;stroke-opacity:1"
             id="path98"
             inkscape:connector-curvature="0" /></g><text
           transform="matrix(1,0,0,-1,380.08203,572.47406)"
           style="font-style:oblique;font-variant:normal;font-size:8.65820312px;font-family:'DejaVu Sans Mono';-inkscape-font-specification:DejaVuSansMono-Oblique;writing-mode:lr-tb;fill:#000000;fill-opacity:1;fill-rule:nonzero;stroke:none"
           id="text100"><tspan
             x="0 5.4200349 10.84007 16.251448 21.671482 27.091516 32.511551 37.922928 43.342964 48.763 54.183033 59.603069 65.01445 70.434479 75.854515"
             y="0"
             sodipodi:role="line"
             id="tspan102">+flowGenerate()</tspan></text>
<text
           transform="matrix(1,0,0,-1,380.08203,561.64985)"
           style="font-variant:normal;font-weight:normal;font-size:8.65820312px;font-family:'DejaVu Sans Mono';-inkscape-font-specification:DejaVuSansMono;writing-mode:lr-tb;fill:#000000;fill-opacity:1;fill-rule:nonzero;stroke:none"
           id="text104"><tspan
             x="0 5.4200349 10.84007 16.251448 21.671482 27.091516 32.511551 37.922928 43.342964 48.763 54.183033 59.603069 65.01445"
             y="0"
             sodipodi:role="line"
             id="tspan106">-flowThread()</tspan><tspan
             x="0 5.4200349 10.84007 16.251448 21.671482 27.091516 32.511551 37.922928 43.342964 48.763 54.183033 59.603069"
             y="10.824217"
             sodipodi:role="line"
             id="tspan108">-flowStart()</tspan></text>
<path
           d="m 422.023,504.155 92.574,0 0,-37.883 -92.574,0 0,37.883 z"
           style="fill:#ffffff;fill-opacity:1;fill-rule:evenodd;stroke:none"
           id="path110"
           inkscape:connector-curvature="0" /></g></g><g
       id="g112"><g
         id="g114"
         clip-path="url(#clipPath116)"><g
           id="g120"
           transform="matrix(1,0,0,-1,0,841.88976)"><path
             d="m 422.023,337.734 92.574,0 0,37.883 -92.574,0 0,-37.883 z"
             style="fill:none;stroke:#000000;stroke-width:1.352947;stroke-linecap:butt;stroke-linejoin:miter;stroke-miterlimit:10;stroke-dasharray:none;stroke-opacity:1"
             id="path122"
             inkscape:connector-curvature="0" /></g><text
           transform="matrix(1,0,0,-1,440.80469,491.29653)"
           style="font-variant:normal;font-weight:bold;font-size:10.82324219px;font-family:'DejaVu Sans';-inkscape-font-specification:DejaVuSans-Bold;writing-mode:lr-tb;fill:#000000;fill-opacity:1;fill-rule:nonzero;stroke:none"
           id="text124"><tspan
             x="0 9.1348162 12.890481 18.150578 26.019073 33.530403 37.286068 44.851517"
             y="0"
             sodipodi:role="line"
             id="tspan126">DitgFlow</tspan></text>
<text
           transform="matrix(1,0,0,-1,422.99219,480.8106)"
           style="font-style:oblique;font-variant:normal;font-size:7.57617188px;font-family:'DejaVu Sans';-inkscape-font-specification:DejaVuSans-Oblique;writing-mode:lr-tb;fill:#000000;fill-opacity:1;fill-rule:nonzero;stroke:none"
           id="text128"><tspan
             x="0 3.121383 8.1898422 13.091625 17.47823 22.114845 27.031782 30.168318 32.706333 37.774792 42.699306 47.760189 52.6847 55.972759 60.866966 64.003502 66.215744 71.109947 76.17083 78.708855 83.436378 85.656204"
             y="0"
             sodipodi:role="line"
             id="tspan130">(packet generation via</tspan><tspan
             x="26.359373 32.518803 34.874992 39.754047 45.943779 48.481796 53.951794 58.777813 61.126427"
             y="9.4687529"
             sodipodi:role="line"
             id="tspan132">DITG API)</tspan></text>
</g></g><g
       id="g134"><path
         d="m 422.023,466.273 92.574,0 0,-5.41 -92.574,0 0,5.41 z"
         style="fill:#ffffff;fill-opacity:1;fill-rule:evenodd;stroke:none"
         id="path136"
         inkscape:connector-curvature="0" /></g><g
       id="g138"><g
         id="g140"
         clip-path="url(#clipPath142)"><g
           id="g146"
           transform="matrix(1,0,0,-1,0,841.88976)"><path
             d="m 422.023,375.617 92.574,0 0,5.41 -92.574,0 0,-5.41 z"
             style="fill:none;stroke:#000000;stroke-width:1.352947;stroke-linecap:butt;stroke-linejoin:miter;stroke-miterlimit:10;stroke-dasharray:none;stroke-opacity:1"
             id="path148"
             inkscape:connector-curvature="0" /></g></g></g><g
       id="g150"><path
         d="m 422.023,460.859 92.574,0 0,-13.531 -92.574,0 0,13.531 z"
         style="fill:#ffffff;fill-opacity:1;fill-rule:evenodd;stroke:none"
         id="path152"
         inkscape:connector-curvature="0" /></g><g
       id="g154"><g
         id="g156"
         clip-path="url(#clipPath158)"><g
           id="g162"
           transform="matrix(1,0,0,-1,0,841.88976)"><path
             d="m 422.023,381.031 92.574,0 0,13.531 -92.574,0 0,-13.531 z"
             style="fill:none;stroke:#000000;stroke-width:1.352947;stroke-linecap:butt;stroke-linejoin:miter;stroke-miterlimit:10;stroke-dasharray:none;stroke-opacity:1"
             id="path164"
             inkscape:connector-curvature="0" /></g><text
           transform="matrix(1,0,0,-1,424.05469,451.38422)"
           style="font-variant:normal;font-weight:normal;font-size:8.65820312px;font-family:'DejaVu Sans Mono';-inkscape-font-specification:DejaVuSansMono;writing-mode:lr-tb;fill:#000000;fill-opacity:1;fill-rule:nonzero;stroke:none"
           id="text166"><tspan
             x="0 5.4200349 10.84007 16.251448 21.671482 27.091516 32.511551 37.922928 43.342964 48.763 54.183033 59.603069 65.01445 70.434479 75.854515"
             y="0"
             sodipodi:role="line"
             id="tspan168">+flowGenerate()</tspan></text>
</g></g><g
       id="g170"><g
         id="g172"
         transform="matrix(1,0,0,-1,0,841.88976)"><path
           d="m 420.504,307.453 0,14.387 47.808,0 0,15.894"
           style="fill:none;stroke:#000000;stroke-width:1.352947;stroke-linecap:butt;stroke-linejoin:miter;stroke-miterlimit:10;stroke-dasharray:none;stroke-opacity:1"
           id="path174"
           inkscape:connector-curvature="0" /></g><g
         id="g176"
         transform="matrix(1,0,0,-1,0,841.88976)"><path
           d="m 425.914,307.453 -5.41,-10.824 -5.414,10.824 10.824,0 z"
           style="fill:#ffffff;fill-opacity:1;fill-rule:evenodd;stroke:#000000;stroke-width:1.352947;stroke-linecap:butt;stroke-linejoin:miter;stroke-miterlimit:10;stroke-dasharray:none;stroke-opacity:1"
           id="path178"
           inkscape:connector-curvature="0" /></g><g
         id="g180"
         transform="matrix(1,0,0,-1,0,841.88976)"><path
           d="m 80.676,90.754 220.328,0 0,18.941 -220.328,0 0,-18.941 z"
           style="fill:#ffffff;fill-opacity:1;fill-rule:evenodd;stroke:#000000;stroke-width:1.352947;stroke-linecap:butt;stroke-linejoin:miter;stroke-miterlimit:10;stroke-dasharray:none;stroke-opacity:1"
           id="path182"
           inkscape:connector-curvature="0" /></g><text
         transform="matrix(1,0,0,-1,148.09766,738.277)"
         style="font-variant:normal;font-weight:bold;font-size:10.82324219px;font-family:'DejaVu Sans';-inkscape-font-specification:DejaVuSans-Bold;writing-mode:lr-tb;fill:#000000;fill-opacity:1;fill-rule:nonzero;stroke:none"
         id="text184"><tspan
           x="0 9.1997557 16.656969 21.917065 32.069267 39.62389 45.046333 52.362846 58.65115 64.073593 71.487511 78.003105"
           y="0"
           sodipodi:role="line"
           id="tspan186">NetworkTrace</tspan></text>
<g
         id="g188"
         transform="matrix(1,0,0,-1,0,841.88976)"><path
           d="m 80.676,109.695 220.328,0 0,24.352 -220.328,0 0,-24.352 z"
           style="fill:#ffffff;fill-opacity:1;fill-rule:evenodd;stroke:#000000;stroke-width:1.352947;stroke-linecap:butt;stroke-linejoin:miter;stroke-miterlimit:10;stroke-dasharray:none;stroke-opacity:1"
           id="path190"
           inkscape:connector-curvature="0" /></g><text
         transform="matrix(1,0,0,-1,82.707031,722.72016)"
         style="font-variant:normal;font-weight:normal;font-size:8.65820312px;font-family:'DejaVu Sans Mono';-inkscape-font-specification:DejaVuSansMono;writing-mode:lr-tb;fill:#000000;fill-opacity:1;fill-rule:nonzero;stroke:none"
         id="text192"><tspan
           x="0 5.4200349 10.84007 16.251448 21.671482 27.091516 32.511551 37.922928 43.342964 48.763 54.183033 59.603069 65.01445 70.434479 75.854515 81.274551 86.685928 92.105965 97.526001 102.94604 108.36607 113.77744 119.19748 124.61752 130.03755 135.44893 140.86896 146.289 151.70903 157.12907"
           y="0"
           sodipodi:role="line"
           id="tspan194">+ netFlow[nflows]: NetworkFlow</tspan><tspan
           x="0 5.4200349 10.84007 16.251448 21.671482 27.091516 32.511551 37.922928 43.342964 48.763 54.183033 59.603069 65.01445"
           y="10.824217"
           sodipodi:role="line"
           id="tspan196">-nflows: uint</tspan></text>
<g
         id="g198"
         transform="matrix(1,0,0,-1,0,841.88976)"><path
           d="m 80.676,134.051 220.328,0 0,35.176 -220.328,0 0,-35.176 z"
           style="fill:#ffffff;fill-opacity:1;fill-rule:evenodd;stroke:#000000;stroke-width:1.352947;stroke-linecap:butt;stroke-linejoin:miter;stroke-miterlimit:10;stroke-dasharray:none;stroke-opacity:1"
           id="path200"
           inkscape:connector-curvature="0" /></g><text
         transform="matrix(1,0,0,-1,82.707031,698.36469)"
         style="font-variant:normal;font-weight:normal;font-size:8.65820312px;font-family:'DejaVu Sans Mono';-inkscape-font-specification:DejaVuSansMono;writing-mode:lr-tb;fill:#000000;fill-opacity:1;fill-rule:nonzero;stroke:none"
         id="text202"><tspan
           x="0 5.4200349 10.84007 16.251448 21.671482 27.091516 32.511551 37.922928 43.342964 48.763 54.183033 59.603069 65.01445 70.434479 75.854515 81.274551 86.685928 92.105965 97.526001 102.94604 108.36607 113.77744 119.19748 124.61752 130.03755 135.44893 140.86896 146.289 151.70903 157.12907 162.54045 167.96048 173.38051 178.80055 184.21193 189.63196 195.052 200.47203 205.89207 211.30345 216.72348"
           y="0"
           sodipodi:role="line"
           id="tspan204">+NetworkTrace(in ctd_xml_filename:string)</tspan><tspan
           x="0 5.4200349 10.84007 16.251448 21.671482 27.091516 32.511551 37.922928 43.342964 48.763 54.183033 59.603069 65.01445 70.434479 75.854515 81.274551 86.685928 92.105965 97.526001 102.94604 108.36607 113.77744 119.19748 124.61752 130.03755 135.44893 140.86896 146.289 151.70903 157.12907 162.54045 167.96048 173.38051 178.80055 184.21193 189.63196 195.052 200.47203 205.89207 211.30345"
           y="10.824217"
           sodipodi:role="line"
           id="tspan206">+writeToFile(in ctd_xml_filename:string)</tspan><tspan
           x="0 5.4200349 10.84007 16.251448 21.671482 27.091516 32.511551"
           y="21.644529"
           sodipodi:role="line"
           id="tspan208">+exec()</tspan></text>
<g
         id="g210"
         transform="matrix(1,0,0,-1,0,841.88976)"><path
           d="m 318.031,100.227 17.102,0 0,0.066 24.656,0"
           style="fill:none;stroke:#000000;stroke-width:1.352947;stroke-linecap:butt;stroke-linejoin:miter;stroke-miterlimit:10;stroke-dasharray:none;stroke-opacity:1"
           id="path212"
           inkscape:connector-curvature="0" /></g><path
         d="m 301.004,741.663 9.469,3.246 9.472,-3.246 -9.472,-3.246 -9.469,3.246 z"
         style="fill:#ffffff;fill-opacity:1;fill-rule:evenodd;stroke:none"
         id="path214"
         inkscape:connector-curvature="0" /><g
         id="g216"
         transform="matrix(1,0,0,-1,0,841.88976)"><path
           d="m 301.004,100.227 9.469,-3.247 9.472,3.247 -9.472,3.246 -9.469,-3.246 z"
           style="fill:none;stroke:#000000;stroke-width:1.352947;stroke-linecap:butt;stroke-linejoin:miter;stroke-miterlimit:10;stroke-dasharray:none;stroke-opacity:1"
           id="path218"
           inkscape:connector-curvature="0" /></g><g
         id="g220"
         transform="matrix(1,0,0,-1,0,841.88976)"><path
           d="m 312.031,337.734 101.809,0 0,37.883 -101.809,0 0,-37.883 z"
           style="fill:#ffffff;fill-opacity:1;fill-rule:evenodd;stroke:#000000;stroke-width:1.352947;stroke-linecap:butt;stroke-linejoin:miter;stroke-miterlimit:10;stroke-dasharray:none;stroke-opacity:1"
           id="path222"
           inkscape:connector-curvature="0" /></g><text
         transform="matrix(1,0,0,-1,333.61719,491.29653)"
         style="font-variant:normal;font-weight:bold;font-size:10.82324219px;font-family:'DejaVu Sans';-inkscape-font-specification:DejaVuSans-Bold;writing-mode:lr-tb;fill:#000000;fill-opacity:1;fill-rule:nonzero;stroke:none"
         id="text224"><tspan
           x="0 4.0911856 11.959682 19.416897 24.83934 29.623213 37.134544 40.901031 48.455654"
           y="0"
           sodipodi:role="line"
           id="tspan226">IperfFlow</tspan></text>
<text
         transform="matrix(1,0,0,-1,312.74219,480.8106)"
         style="font-style:oblique;font-variant:normal;font-size:7.57617188px;font-family:'DejaVu Sans';-inkscape-font-specification:DejaVuSans-Oblique;writing-mode:lr-tb;fill:#000000;fill-opacity:1;fill-rule:nonzero;stroke:none"
         id="text228"><tspan
           x="0 3.121383 8.1898422 13.091625 17.47823 22.114845 27.031782 30.168318 32.706333 37.774792 42.699306 47.760189 52.6847 55.972759 60.866966 64.003502 66.215744 71.109947 76.17083 78.708855 83.769737 87.929054 90.148872 95.209755"
           y="0"
           sodipodi:role="line"
           id="tspan230">(packet generation using</tspan><tspan
           x="39.410156 41.75877 46.834805 51.75174 55.039799 57.858135"
           y="9.4687529"
           sodipodi:role="line"
           id="tspan232">Iperf)</tspan></text>
<g
         id="g234"
         transform="matrix(1,0,0,-1,0,841.88976)"><path
           d="m 312.031,375.617 101.809,0 0,5.41 -101.809,0 0,-5.41 z"
           style="fill:#ffffff;fill-opacity:1;fill-rule:evenodd;stroke:#000000;stroke-width:1.352947;stroke-linecap:butt;stroke-linejoin:miter;stroke-miterlimit:10;stroke-dasharray:none;stroke-opacity:1"
           id="path236"
           inkscape:connector-curvature="0" /></g><g
         id="g238"
         transform="matrix(1,0,0,-1,0,841.88976)"><path
           d="m 312.031,381.031 101.809,0 0,13.531 -101.809,0 0,-13.531 z"
           style="fill:#ffffff;fill-opacity:1;fill-rule:evenodd;stroke:#000000;stroke-width:1.352947;stroke-linecap:butt;stroke-linejoin:miter;stroke-miterlimit:10;stroke-dasharray:none;stroke-opacity:1"
           id="path240"
           inkscape:connector-curvature="0" /></g><text
         transform="matrix(1,0,0,-1,314.05859,451.38422)"
         style="font-variant:normal;font-weight:normal;font-size:8.65820312px;font-family:'DejaVu Sans Mono';-inkscape-font-specification:DejaVuSansMono;writing-mode:lr-tb;fill:#000000;fill-opacity:1;fill-rule:nonzero;stroke:none"
         id="text242"><tspan
           x="0 5.4200349 10.84007 16.251448 21.671482 27.091516 32.511551 37.922928 43.342964 48.763 54.183033 59.603069 65.01445 70.434479 75.854515"
           y="0"
           sodipodi:role="line"
           id="tspan244">+flowGenerate()</tspan></text>
<g
         id="g246"
         transform="matrix(1,0,0,-1,0,841.88976)"><path
           d="m 420.504,307.453 0,14.387 -57.57,0 0,15.894"
           style="fill:none;stroke:#000000;stroke-width:1.352947;stroke-linecap:butt;stroke-linejoin:miter;stroke-miterlimit:10;stroke-dasharray:none;stroke-opacity:1"
           id="path248"
           inkscape:connector-curvature="0" /></g><g
         id="g250"
         transform="matrix(1,0,0,-1,0,841.88976)"><path
           d="m 425.914,307.453 -5.41,-10.824 -5.414,10.824 10.824,0 z"
           style="fill:#ffffff;fill-opacity:1;fill-rule:evenodd;stroke:#000000;stroke-width:1.352947;stroke-linecap:butt;stroke-linejoin:miter;stroke-miterlimit:10;stroke-dasharray:none;stroke-opacity:1"
           id="path252"
           inkscape:connector-curvature="0" /></g><g
         id="g254"
         transform="matrix(1,0,0,-1,0,841.88976)"><path
           d="m 420.469,180.953 0,17.09 0.035,0 0,18.605"
           style="fill:none;stroke:#000000;stroke-width:1.352947;stroke-linecap:butt;stroke-linejoin:miter;stroke-miterlimit:10;stroke-dasharray:none;stroke-opacity:1"
           id="path256"
           inkscape:connector-curvature="0" /></g><g
         id="g258"
         transform="matrix(1,0,0,-1,0,841.88976)"><path
           d="m 425.879,180.953 -5.41,-10.824 -5.41,10.824 10.82,0 z"
           style="fill:#ffffff;fill-opacity:1;fill-rule:evenodd;stroke:#000000;stroke-width:1.352947;stroke-linecap:butt;stroke-linejoin:miter;stroke-miterlimit:10;stroke-dasharray:none;stroke-opacity:1"
           id="path260"
           inkscape:connector-curvature="0" /></g></g></g></svg>